<svg version="1.1" xmlns="http://www.w3.org/2000/svg" viewBox="0 0 1506.4458406494862 296.26953125" width="1506.4458406494862" height="296.26953125" filter="invert(93%) hue-rotate(180deg)">
  <!-- svg-source:excalidraw -->
  
  <defs>
    <style>
      @font-face {
        font-family: "Virgil";
        src: url("https://excalidraw.com/Virgil.woff2");
      }
      @font-face {
        font-family: "Cascadia";
        src: url("https://excalidraw.com/Cascadia.woff2");
      }
    </style>
  </defs>
  <g transform="translate(79.03568439948609 96.01953125) rotate(0 114 22.5)"><text x="0" y="32" font-family="Virgil, Segoe UI Emoji" font-size="36px" fill="#495057" text-anchor="start" style="white-space: pre;" direction="ltr">nx generate </text></g><g transform="translate(304.32474689948606 95.23828125) rotate(0 116 22.5)"><text x="0" y="32" font-family="Virgil, Segoe UI Emoji" font-size="36px" fill="#364fc7" text-anchor="start" style="white-space: pre;" direction="ltr">&lt;plugin name&gt;</text></g><g transform="translate(537.0591218994861 91.44140625) rotate(0 5 22.5)"><text x="0" y="32" font-family="Virgil, Segoe UI Emoji" font-size="36px" fill="#495057" text-anchor="start" style="white-space: pre;" direction="ltr">:</text></g><g transform="translate(553.6997468994861 93.21875) rotate(0 155.5 22.5)"><text x="0" y="32" font-family="Virgil, Segoe UI Emoji" font-size="36px" fill="#e67700" text-anchor="start" style="white-space: pre;" direction="ltr">&lt;generator name&gt;</text></g><g transform="translate(901.1567781494861 91.36328125) rotate(0 146.5 22.5)"><text x="0" y="32" font-family="Virgil, Segoe UI Emoji" font-size="36px" fill="#862e9c" text-anchor="start" style="white-space: pre;" direction="ltr">&lt;default option&gt;</text></g><g transform="translate(1222.4458406494862 91.7109375) rotate(0 137 22.5)"><text x="0" y="32" font-family="Virgil, Segoe UI Emoji" font-size="36px" fill="#0b7285" text-anchor="start" style="white-space: pre;" direction="ltr">&lt;other options&gt;</text></g><g transform="translate(85.78177814948609 154.85546875) rotate(0 118.06597222222223 35.8984375)"><text x="0" y="50.796875" font-family="Virgil, Segoe UI Emoji" font-size="57.437500000000014px" fill="#495057" text-anchor="start" style="white-space: pre;" direction="ltr">Example:</text></g><g transform="translate(91.68846217726392 10) rotate(0 103.5 36)"><text x="0" y="51" font-family="Virgil, Segoe UI Emoji" font-size="57.437500000000014px" fill="#495057" text-anchor="start" style="white-space: pre;" direction="ltr">Syntax:</text></g><g transform="translate(76.54935627448609 241.26953125) rotate(0 114 22.5)"><text x="0" y="32" font-family="Virgil, Segoe UI Emoji" font-size="36px" fill="#495057" text-anchor="start" style="white-space: pre;" direction="ltr">nx generate </text></g><g transform="translate(301.83841877448606 240.48828125) rotate(0 94.5 22.5)"><text x="0" y="32" font-family="Virgil, Segoe UI Emoji" font-size="36px" fill="#364fc7" text-anchor="start" style="white-space: pre;" direction="ltr">@nrwl/node</text></g><g transform="translate(498.58841877448606 238.87890625) rotate(0 5 22.5)"><text x="0" y="32" font-family="Virgil, Segoe UI Emoji" font-size="36px" fill="#495057" text-anchor="start" style="white-space: pre;" direction="ltr">:</text></g><g transform="translate(514.5688875244861 239.1171875) rotate(0 92.5 22.5)"><text x="0" y="32" font-family="Virgil, Segoe UI Emoji" font-size="36px" fill="#e67700" text-anchor="start" style="white-space: pre;" direction="ltr">application</text></g><g transform="translate(723.5649812744861 236.078125) rotate(0 101.5 22.5)"><text x="0" y="32" font-family="Virgil, Segoe UI Emoji" font-size="36px" fill="#862e9c" text-anchor="start" style="white-space: pre;" direction="ltr">products-cli</text></g><g transform="translate(952.0884187744861 233.4921875) rotate(0 200 22.5)"><text x="0" y="32" font-family="Virgil, Segoe UI Emoji" font-size="36px" fill="#0b7285" text-anchor="start" style="white-space: pre;" direction="ltr">--directory=cli-projects</text></g><g stroke-linecap="round"><g transform="translate(68.25443439948609 125.6953125) rotate(0 -29.16282457774159 63.486195471510285)"><path d="M-0.07 -0.81 C-9.5 9.24, -56.72 38.94, -57.41 60.37 C-58.1 81.8, -12.99 116.62, -4.2 127.78 M-1.57 1.38 C-11.07 11.54, -57.64 40.62, -58.25 61.37 C-58.86 82.12, -14.11 114.69, -5.23 125.91" stroke="#495057" stroke-width="4" fill="none"></path></g><g transform="translate(68.25443439948609 125.6953125) rotate(0 -29.16282457774159 63.486195471510285)"><path d="M-33.98 114.04 C-28.01 115.7, -18.47 117.74, -4.47 124.64 M-32.6 113.64 C-25.62 116.56, -16.1 121.2, -5.32 124.97" stroke="#495057" stroke-width="4" fill="none"></path></g><g transform="translate(68.25443439948609 125.6953125) rotate(0 -29.16282457774159 63.486195471510285)"><path d="M-19.72 99.29 C-17.04 104.35, -10.79 109.79, -4.47 124.64 M-18.34 98.88 C-15.3 106.01, -9.84 114.85, -5.32 124.97" stroke="#495057" stroke-width="4" fill="none"></path></g></g><g stroke-linecap="round"><g transform="translate(412.0345321051261 149.36328125) rotate(0 -13.458935508250136 40.46889897030778)"><path d="M-0.64 0.37 C-5.19 13.86, -23.19 67.85, -27.64 81.43 M1.23 -0.49 C-3.37 12.62, -23.36 66.26, -28.15 79.69" stroke="#364fc7" stroke-width="4" fill="none"></path></g><g transform="translate(412.0345321051261 149.36328125) rotate(0 -13.458935508250136 40.46889897030778)"><path d="M-27.5 51.08 C-26.78 59.73, -26.12 66.05, -27.95 79.49 M-28.97 49.06 C-27.87 61.41, -27.27 71.85, -28.83 79.06" stroke="#364fc7" stroke-width="4" fill="none"></path></g><g transform="translate(412.0345321051261 149.36328125) rotate(0 -13.458935508250136 40.46889897030778)"><path d="M-8.23 58.12 C-12.77 64.76, -17.35 69.16, -27.95 79.49 M-9.7 56.1 C-15.55 65.99, -21.93 73.88, -28.83 79.06" stroke="#364fc7" stroke-width="4" fill="none"></path></g></g><g stroke-linecap="round"><g transform="translate(654.7711081088702 147.39453125) rotate(0 -25.876073377565717 41.53838990014978)"><path d="M0.82 -0.07 C-7.77 13.78, -43.09 70.35, -51.72 84.22 M-0.21 -1.15 C-8.92 12.84, -44.07 68.06, -52.57 82.26" stroke="#e67700" stroke-width="4" fill="none"></path></g><g transform="translate(654.7711081088702 147.39453125) rotate(0 -25.876073377565717 41.53838990014978)"><path d="M-46.55 53.22 C-47.38 62.8, -50.87 68.76, -53.14 82.57 M-45.97 52.5 C-47.67 58.73, -50.4 65.82, -53.1 82.94" stroke="#e67700" stroke-width="4" fill="none"></path></g><g transform="translate(654.7711081088702 147.39453125) rotate(0 -25.876073377565717 41.53838990014978)"><path d="M-29.11 64.03 C-34.95 70.69, -43.35 73.61, -53.14 82.57 M-28.52 63.31 C-34.01 67.3, -40.62 71.99, -53.1 82.94" stroke="#e67700" stroke-width="4" fill="none"></path></g></g><g stroke-linecap="round"><g transform="translate(901.8704348539164 149.64414169510007) rotate(0 -41.204846080233665 36.76081632337943)"><path d="M1.14 1.16 C-12.57 13.2, -68.75 59.72, -82.5 71.51 M0.28 0.73 C-13.58 12.99, -69.9 60.71, -83.55 72.79" stroke="#862e9c" stroke-width="4" fill="none"></path></g><g transform="translate(901.8704348539164 149.64414169510007) rotate(0 -41.204846080233665 36.76081632337943)"><path d="M-66.98 46.27 C-73.97 55.64, -77.32 62.33, -82.83 74.33 M-68.16 46.56 C-73.41 54.43, -77.84 63.34, -83.01 73.75" stroke="#862e9c" stroke-width="4" fill="none"></path></g><g transform="translate(901.8704348539164 149.64414169510007) rotate(0 -41.204846080233665 36.76081632337943)"><path d="M-53.57 61.8 C-64.2 66.97, -71.29 69.33, -82.83 74.33 M-54.75 62.09 C-64.57 64.67, -73.5 68.37, -83.01 73.75" stroke="#862e9c" stroke-width="4" fill="none"></path></g></g><g stroke-linecap="round"><g transform="translate(1303.3364656494862 142.3597412109375) rotate(0 -65.04823548421257 40.2507228218019)"><path d="M0.24 -1.02 C-21.65 12.45, -108.74 67.87, -130.33 81.52 M-1.1 1.06 C-22.7 14.15, -106.6 67.03, -128.09 79.98" stroke="#0b7285" stroke-width="4" fill="none"></path></g><g transform="translate(1303.3364656494862 142.3597412109375) rotate(0 -65.04823548421257 40.2507228218019)"><path d="M-111.21 54.93 C-114.6 65.61, -122.75 74.03, -126.17 80.2 M-109.98 56.35 C-114.72 65.04, -121.28 72.45, -129.07 79.2" stroke="#0b7285" stroke-width="4" fill="none"></path></g><g transform="translate(1303.3364656494862 142.3597412109375) rotate(0 -65.04823548421257 40.2507228218019)"><path d="M-100.42 72.39 C-108.03 76.43, -120.3 78.19, -126.17 80.2 M-99.19 73.81 C-107.78 76.55, -118.05 77.96, -129.07 79.2" stroke="#0b7285" stroke-width="4" fill="none"></path></g></g></svg>