<svg version="1.1" xmlns="http://www.w3.org/2000/svg" viewBox="0 0 1270.55078125 234.34765625" width="1270.55078125" height="234.34765625" filter="invert(93%) hue-rotate(180deg)">
  <!-- svg-source:excalidraw -->
  
  <defs>
    <style>
      @font-face {
        font-family: "Virgil";
        src: url("https://excalidraw.com/Virgil.woff2");
      }
      @font-face {
        font-family: "Cascadia";
        src: url("https://excalidraw.com/Cascadia.woff2");
      }
    </style>
  </defs>
  <g transform="translate(298.91796875 22.5078125) rotate(0 19 22.5)"><text x="0" y="32" font-family="Virgil, Segoe UI Emoji" font-size="36px" fill="#495057" text-anchor="start" style="white-space: pre;" direction="ltr">nx</text></g><g transform="translate(367.88281250000006 23.984375) rotate(0 129.5 22.5)"><text x="0" y="32" font-family="Virgil, Segoe UI Emoji" font-size="36px" fill="#364fc7" text-anchor="start" style="white-space: pre;" direction="ltr">&lt;target name&gt;</text></g><g transform="translate(649.8359375 24.29296875) rotate(0 132.5 22.5)"><text x="0" y="32" font-family="Virgil, Segoe UI Emoji" font-size="36px" fill="#e67700" text-anchor="start" style="white-space: pre;" direction="ltr">&lt;project name&gt;</text></g><g transform="translate(942.5507812500001 23.234375) rotate(0 159 22.5)"><text x="0" y="32" font-family="Virgil, Segoe UI Emoji" font-size="36px" fill="#0b7285" text-anchor="start" style="white-space: pre;" direction="ltr">&lt;option overrides&gt;</text></g><g transform="translate(10 152.55078125) rotate(0 118.06597222222223 35.8984375)"><text x="0" y="50.796875" font-family="Virgil, Segoe UI Emoji" font-size="57.437500000000014px" fill="#495057" text-anchor="start" style="white-space: pre;" direction="ltr">Example:</text></g><g transform="translate(41.80902777777783 10) rotate(0 103.5 36.5)"><text x="0" y="51" font-family="Virgil, Segoe UI Emoji" font-size="57.437500000000014px" fill="#495057" text-anchor="start" style="white-space: pre;" direction="ltr">Syntax:</text></g><g transform="translate(296.431640625 167.7578125) rotate(0 28 22.5)"><text x="0" y="32" font-family="Virgil, Segoe UI Emoji" font-size="36px" fill="#495057" text-anchor="start" style="white-space: pre;" direction="ltr">nx </text></g><g transform="translate(357.61914062500006 168.4375) rotate(0 39 22.5)"><text x="0" y="32" font-family="Virgil, Segoe UI Emoji" font-size="36px" fill="#364fc7" text-anchor="start" style="white-space: pre;" direction="ltr">build</text></g><g transform="translate(460.802734375 164.81640625) rotate(0 182 22.5)"><text x="0" y="32" font-family="Virgil, Segoe UI Emoji" font-size="36px" fill="#e67700" text-anchor="start" style="white-space: pre;" direction="ltr">products-data-client</text></g><g transform="translate(844.83540119529 163.70312389107323) rotate(0 66.5 23)"><text x="0" y="32" font-family="Virgil, Segoe UI Emoji" font-size="36px" fill="#0b7285" text-anchor="start" style="white-space: pre;" direction="ltr">--watch</text></g><g stroke-linecap="round"><g transform="translate(422.4215519213445 81.95312500000023) rotate(0 -11.02264389842852 36.2598435681312)"><path d="M-0.39 -0.86 C-4.24 11.38, -19.1 61.21, -22.63 73.38 M1.6 1.3 C-2.45 13.19, -19.74 59.6, -23.64 71.58" stroke="#364fc7" stroke-width="4" fill="none"></path></g><g transform="translate(422.4215519213445 81.95312500000023) rotate(0 -11.02264389842852 36.2598435681312)"><path d="M-25.41 41.37 C-22.86 53.19, -24.78 62.95, -23.54 69.82 M-23.3 41.21 C-22.98 50.32, -24.01 58.44, -23.37 72.14" stroke="#364fc7" stroke-width="4" fill="none"></path></g><g transform="translate(422.4215519213445 81.95312500000023) rotate(0 -11.02264389842852 36.2598435681312)"><path d="M-6.05 48.19 C-9.97 57.66, -18.36 65.14, -23.54 69.82 M-3.94 48.03 C-8.85 55.36, -15.05 61.66, -23.37 72.14" stroke="#364fc7" stroke-width="4" fill="none"></path></g></g><g stroke-linecap="round"><g transform="translate(713.5503707439188 78.46875000000011) rotate(0 -33.3428228932126 38.31316002625891)"><path d="M-0.86 -0.13 C-12.01 12.92, -55.72 64.89, -66.94 77.86 M0.88 -1.24 C-10.36 11.52, -55.88 63.4, -67.57 76.24" stroke="#e67700" stroke-width="4" fill="none"></path></g><g transform="translate(713.5503707439188 78.46875000000011) rotate(0 -33.3428228932126 38.31316002625891)"><path d="M-56.68 49.38 C-58.25 55.45, -61.77 64.75, -69.33 75.57 M-56.84 48.98 C-60.03 58.88, -64.27 70.57, -67.01 77.1" stroke="#e67700" stroke-width="4" fill="none"></path></g><g transform="translate(713.5503707439188 78.46875000000011) rotate(0 -33.3428228932126 38.31316002625891)"><path d="M-41.36 63.04 C-47.38 64.99, -55.4 70.28, -69.33 75.57 M-41.52 62.64 C-50.75 67.28, -60.99 73.62, -67.01 77.1" stroke="#e67700" stroke-width="4" fill="none"></path></g></g><g stroke-linecap="round"><g transform="translate(316.76969739663207 76.708251953125) rotate(0 -1.487471498697995 41.28987162254748)"><path d="M0.75 1.15 C0.47 14.41, -1.87 67.34, -2.48 80.53 M-0.32 0.71 C-0.74 14.06, -3.69 68.44, -3.72 81.87" stroke="#495057" stroke-width="4" fill="none"></path></g><g transform="translate(316.76969739663207 76.708251953125) rotate(0 -1.487471498697995 41.28987162254748)"><path d="M-11.16 52.42 C-11.28 58.3, -9.49 68.09, -3.58 80.3 M-14.03 53.03 C-9.4 61.64, -6.69 70.74, -4.5 81.76" stroke="#495057" stroke-width="4" fill="none"></path></g><g transform="translate(316.76969739663207 76.708251953125) rotate(0 -1.487471498697995 41.28987162254748)"><path d="M9.36 53.08 C4.44 58.94, 1.44 68.57, -3.58 80.3 M6.48 53.69 C4.8 62.08, 1.18 70.98, -4.5 81.76" stroke="#495057" stroke-width="4" fill="none"></path></g></g><g stroke-linecap="round"><g transform="translate(1064.7574634947 77.91599793068713) rotate(0 -71.58985599684758 37.31032028862097)"><path d="M0.24 -0.51 C-23.39 12.36, -118.96 63.83, -142.93 76.44 M-1.09 -1.82 C-24.7 10.78, -119.56 61.77, -143.42 74.79" stroke="#0b7285" stroke-width="4" fill="none"></path></g><g transform="translate(1064.7574634947 77.91599793068713) rotate(0 -71.58985599684758 37.31032028862097)"><path d="M-124.36 53.82 C-126.18 57.3, -132.33 62.34, -142.16 75.69 M-123.14 52.52 C-129.39 58.89, -135.9 65.85, -142.74 73.99" stroke="#0b7285" stroke-width="4" fill="none"></path></g><g transform="translate(1064.7574634947 77.91599793068713) rotate(0 -71.58985599684758 37.31032028862097)"><path d="M-114.59 71.87 C-118.28 71.71, -126.41 73.09, -142.16 75.69 M-113.37 70.57 C-122.52 71.59, -131.93 73.2, -142.74 73.99" stroke="#0b7285" stroke-width="4" fill="none"></path></g></g></svg>